/* XPM */
static char *d9682d7910e3460deaa29dd0488e235edYO14A9QtsX4U3xE[] = {
/* columns rows colors chars-per-pixel */
"32 32 190 2 ",
"   c #393E46",
".  c #383D45",
"X  c #373C44",
"o  c #2D323B",
"O  c #2B3039",
"+  c #2C313A",
"@  c #2C3139",
"#  c #2B3139",
"$  c #2A3038",
"%  c #292E37",
"&  c #2E333B",
"*  c #6A6E74",
"=  c #ADAFB2",
"-  c #A1A4A7",
";  c #9FA2A5",
":  c #A0A3A7",
">  c #A4A6AA",
",  c #A7A9AD",
"<  c #AAACAF",
"1  c #B2B4B7",
"2  c #BCBEC0",
"3  c #62676D",
"4  c #2A2F38",
"5  c #5D6268",
"6  c #F8F8F8",
"7  c #E8EAEA",
"8  c #F8F9F9",
"9  c white",
"0  c #FEFEFE",
"q  c #555960",
"w  c #282E37",
"e  c #7F8287",
"r  c #D6D8D9",
"t  c #E2E3E4",
"y  c #E8E8E9",
"u  c #E6E7E8",
"i  c #E6E6E7",
"p  c #E5E6E7",
"a  c #E4E4E5",
"s  c #E8E9EA",
"d  c #F9F9F9",
"f  c #787B81",
"g  c #282D36",
"h  c #FBFCFB",
"j  c #DEE0E1",
"k  c #50545B",
"l  c #343941",
"z  c #565A61",
"x  c #DCDDDE",
"c  c #74787D",
"v  c #777A80",
"b  c #4F545B",
"n  c #585D63",
"m  c #E6E8E8",
"M  c #73777C",
"N  c #292F37",
"B  c #76797F",
"V  c #F6F7F6",
"C  c #54585F",
"Z  c #2F343C",
"A  c #5E6268",
"S  c #EAEBEC",
"D  c #71757B",
"F  c #75787E",
"G  c #F3F4F4",
"H  c #2D323A",
"J  c #5F6369",
"K  c #EEEFEF",
"L  c #6F7379",
"P  c #74777D",
"I  c #F1F1F2",
"U  c #2C323A",
"Y  c #60646B",
"T  c #F2F3F2",
"R  c #6D7177",
"E  c #73767C",
"W  c #53585E",
"Q  c #61656B",
"!  c #F6F6F6",
"~  c #6C6F75",
"^  c #EBEDED",
"/  c #474C53",
"(  c #1E242D",
")  c #191F28",
"_  c #555A61",
"`  c #FBFBFB",
"'  c #F4F5F4",
"]  c #6A6E73",
"[  c #DADCDC",
"{  c #9DA0A4",
"}  c #8F9296",
"|  c #96989C",
" . c #979A9E",
".. c #9A9CA0",
"X. c #9C9EA2",
"o. c #989B9F",
"O. c #B3B5B8",
"+. c #F6F7F7",
"@. c #EFF0F0",
"#. c #6B6E74",
"$. c #6B6F75",
"%. c #F5F6F6",
"&. c #EBECEC",
"*. c #F7F8F8",
"=. c #EDEFEF",
"-. c #60646A",
";. c #363B43",
":. c #2F343D",
">. c #A6A9AD",
",. c #FCFDFD",
"<. c #F1F2F3",
"1. c #F0F1F1",
"2. c #EFF1F1",
"3. c #EFF0F1",
"4. c #F1F2F2",
"5. c #8A8D91",
"6. c #373C45",
"7. c #3A3F47",
"8. c #353B43",
"9. c #41464D",
"0. c #41454D",
"q. c #40454D",
"w. c #40454C",
"e. c #40444C",
"r. c #363B44",
"t. c #32373F",
"y. c #333841",
"u. c #333840",
"i. c #323740",
"p. c #31363E",
"a. c #2F353D",
"s. c #30363E",
"d. c #353A42",
"f. c #323840",
"g. c #343942",
"h. c #43484F",
"j. c #595D64",
"k. c #4A4E55",
"l. c #4F535A",
"z. c #50555C",
"x. c #4B5057",
"c. c #434850",
"v. c #5B5F66",
"b. c #52575E",
"n. c #4B4F56",
"m. c #53575E",
"M. c #4A4E56",
"N. c #53585F",
"B. c #464B52",
"V. c #454951",
"C. c #52565D",
"Z. c #4A4F56",
"A. c #3F444C",
"S. c #83868B",
"D. c #8F9196",
"F. c #85888D",
"G. c #8A8D92",
"H. c #8C8F93",
"J. c #7C8085",
"K. c #93969A",
"L. c #96999D",
"P. c #888B90",
"I. c #B5B7BA",
"U. c #8D9094",
"Y. c #9A9DA1",
"T. c #929599",
"R. c #83878C",
"E. c #94969B",
"W. c #8B8E92",
"Q. c #71747A",
"!. c #65696F",
"~. c #808388",
"^. c #93959A",
"/. c #7D8086",
"(. c #B1B3B6",
"). c #595E64",
"_. c #30353E",
"`. c #3B4048",
"'. c #42474F",
"]. c #3E434B",
"[. c #3C4149",
"{. c #41464E",
"}. c #3B3F47",
"|. c #42464E",
" X c #42474E",
".X c #3F434B",
"XX c #3D4249",
"oX c #3C4148",
"OX c #353A43",
"+X c #343A42",
/* pixels */
"                                                                ",
"                                                                ",
"                                                                ",
"                                                                ",
"                    . X X X X X X X X X X                       ",
"                    o O + + + @ # O O $ % &                     ",
"                  O * = - ; : > , < = 1 2 3 4                   ",
"                o 5 6 7 8 9 9 9 9 9 9 9 9 0 q &                 ",
"                w e 9 r t y u u i p a s d 9 f g                 ",
"                4 f h j k 4 l l l l % z x 9 c %                 ",
"                4 v d j b % l l l l g n m 9 M N                 ",
"                4 B V j C Z         o A S 9 D 4                 ",
"                $ F G j C Z         H J K 9 L 4                 ",
"                O P I j C Z         U Y T 0 R $                 ",
"                O E K j W & . . . . O Q ! d ~ O                 ",
"                O D ^ j / ( % % w g ) _ ` ' ] #                 ",
"                O M m [ { } |  ...X.o.O.+.@.#.O                 ",
"                # $.%.&.*.0 9 9 9 9 9 9 0 =.-.H                 ",
"                ;.:.>.,.<.1.1.2.3.@.@.4.*.5.& 6.                ",
"                7.8.Z 9.0.q.q.q.w.w.w.q.e.:.X 7.                ",
"  7.r.t.l y.u.l X i.p.4 O 4 a.+ $ # # O + s.u.d.;.y.f.g.p.X 7.  ",
"  r.h.j.k.l.z.x.c.v.x.b.b.b.0.n.m.z.l.b M.N.C B.V.b C.Z.q A.X   ",
"  p.v.S.D.F.G.H.e.J.K.L.P.I.C.U.Y.S.T.T.R.E.W.Q.!.~.^./.(.)._.  ",
"    `.. '.w.0.].  7.[.{.{.q.}.[.q.9.'.|.e.{. X.X[.{.9.XX].oX.   ",
"    . X d.;.d.;.  X ;.d.d.l . ;.d.OXd.d.;.d.d.r.X 8.d.;.+X.     ",
"                                                                ",
"                                                                ",
"                                                                ",
"                                                                ",
"                                                                ",
"                                                                ",
"                                                                "
};
