/* XPM */
static char *_2dc07110689403e821d0ddfb87eefb8wfsIcTRMw1lvFk3g[] = {
/* columns rows colors chars-per-pixel */
"16 16 96 2 ",
"   c #393E46",
".  c #363B43",
"X  c #353A42",
"o  c #353A43",
"O  c #3A3F47",
"+  c #2F343C",
"@  c #323740",
"#  c #32373F",
"$  c #323840",
"%  c #2D323B",
"&  c #333941",
"*  c #40454D",
"=  c #B4B7B9",
"-  c #D8DADB",
";  c #D9DBDC",
":  c #DFE0E0",
">  c #EAEBEB",
",  c #C2C4C7",
"<  c #3D4149",
"1  c #2D323A",
"2  c #60646B",
"3  c #F5F6F6",
"4  c #A3A5A9",
"5  c #96999D",
"6  c #95989C",
"7  c #A7AAAD",
"8  c white",
"9  c #5F6369",
"0  c #2C313A",
"q  c #2E333B",
"w  c #5F646A",
"e  c #E7E8E8",
"r  c #3C4149",
"t  c #1E242D",
"y  c #1D232C",
"u  c #3F444C",
"i  c #F3F4F4",
"p  c #2D333B",
"a  c #2E333C",
"s  c #5D6168",
"d  c #E4E5E5",
"f  c #494D55",
"g  c #2B3039",
"h  c #4E535A",
"j  c #5B5F66",
"k  c #E1E3E3",
"l  c #43484F",
"z  c #262C34",
"x  c #242A33",
"c  c #4C5057",
"v  c #F4F5F4",
"b  c #5A5E64",
"n  c #2E343C",
"m  c #54585F",
"M  c #F0F1F1",
"N  c #D7D9DA",
"B  c #D1D3D4",
"V  c #D5D7D8",
"C  c #E9EAEA",
"Z  c #F9FAFA",
"A  c #4E525A",
"S  c #2F343D",
"D  c #333841",
"F  c #333840",
"G  c #7F8288",
"H  c #A4A7AA",
"J  c #A1A4A8",
"K  c #A1A3A7",
"L  c #A6A8AC",
"P  c #777B80",
"I  c #30353D",
"U  c #343A42",
"Y  c #383D45",
"T  c #464A52",
"R  c #494E55",
"E  c #454A51",
"W  c #3E424A",
"Q  c #3B4048",
"!  c #3D424A",
"~  c #484C54",
"^  c #464B52",
"/  c #4D5158",
"(  c #464B53",
")  c #373C44",
"_  c #52575E",
"`  c #676A71",
"'  c #4F545B",
"]  c #676B71",
"[  c #686C72",
"{  c #585C63",
"}  c #666A70",
"|  c #65696F",
" . c #5D6167",
".. c #575C62",
"X. c #5B5F65",
"o. c #343941",
/* pixels */
"                                ",
"          . X o X X .           ",
"      O . + @ # @ $ % . O       ",
"      & * = - ; : > , < &       ",
"      1 2 3 4 5 6 7 8 9 0       ",
"      q w e r t y u i w p       ",
"      a s d f 1 g h i j a       ",
"      a s k l z x c v b a       ",
"      n m M N B V C Z A S       ",
"  . X D F G H J K L P I U U .   ",
"Y T c R E W Q X Q Y ! ~ ^ / ( ) ",
". _ ` 9 ' ] [ { } | |  ...[ X.X ",
"  . o.X . D D X o.o.o.X . & X O ",
"                                ",
"                                ",
"                                "
};
