/* XPM */
static char *bc37a4b96ed9447fbd5b6fd170654526CeirSBe3NBE3v6HH[] = {
/* columns rows colors chars-per-pixel */
"64 64 131 2 ",
"   c #1D232C",
".  c #222730",
"X  c #272C35",
"o  c #292E37",
"O  c #2A2F38",
"+  c #2C323A",
"@  c #31363F",
"#  c #323740",
"$  c #363B43",
"%  c #393E46",
"&  c #3D424A",
"*  c #40454D",
"=  c #43484F",
"-  c #464A52",
";  c #4A4E56",
":  c #4B5057",
">  c #4D5259",
",  c #51555C",
"<  c #54595F",
"1  c #575B62",
"2  c #5A5E65",
"3  c #5D6167",
"4  c #5F636A",
"5  c #61656B",
"6  c #65696F",
"7  c #666A70",
"8  c #6A6E74",
"9  c #6D7176",
"0  c #6E7278",
"q  c #72767B",
"w  c #75797E",
"e  c #7A7E83",
"r  c #7E8186",
"t  c #7F8288",
"y  c #82858A",
"u  c #86898E",
"i  c #888B8F",
"p  c #8A8D91",
"a  c #8E9195",
"s  c #93969A",
"d  c #97999D",
"f  c #989B9F",
"g  c #9B9DA1",
"h  c #9EA1A5",
"j  c #A1A3A6",
"k  c #A3A5A9",
"l  c #A6A9AC",
"z  c #A8ABAE",
"x  c #ABAEB1",
"c  c #AEB0B3",
"v  c #B1B3B6",
"b  c #B4B6B8",
"n  c #B6B9BB",
"m  c #B9BBBD",
"M  c #BCBEC1",
"N  c #BFC0C3",
"B  c #C1C2C5",
"V  c #C7C9CB",
"C  c #CACCCE",
"Z  c #CDCED0",
"A  c #D3D5D6",
"S  c #D5D7D8",
"D  c #D7D9DA",
"F  c #DADCDD",
"G  c #DEDFE0",
"H  c #DFE0E1",
"J  c #E6E7E7",
"K  c #E4E6E6",
"L  c #E2E3E4",
"P  c #E6E7E8",
"I  c #E7E7E8",
"U  c #E6E8E8",
"Y  c #E7E8E8",
"T  c #E7E8E9",
"R  c #E7E9E9",
"E  c #E8E9E9",
"W  c #E8E9EA",
"Q  c #E9EAEA",
"!  c #E9EAEB",
"~  c #EAEBEB",
"^  c #EBECEB",
"/  c #EAEBEC",
"(  c #EAECEC",
")  c #EBECEC",
"_  c #ECECED",
"`  c #ECEDED",
"'  c #ECEDEE",
"]  c #EDEDEE",
"[  c #ECEEEE",
"{  c #EDEEEE",
"}  c #EDEEEF",
"|  c #EEEEEF",
" . c #EEEFEF",
".. c #EEEFF0",
"X. c #EFEFF0",
"o. c #EFF0F0",
"O. c #F0F1F1",
"+. c #F1F2F1",
"@. c #F1F2F2",
"#. c gray95",
"$. c #F2F3F3",
"%. c #F3F3F3",
"&. c #F3F4F4",
"*. c #F4F4F4",
"=. c #F4F5F4",
"-. c #F4F5F5",
";. c gray96",
":. c #F6F6F6",
">. c #F6F7F6",
",. c #F6F6F7",
"<. c #F6F7F7",
"1. c gray97",
"2. c #F4F5F5",
"3. c #F7F8F7",
"4. c #F7F8F8",
"5. c #F8F8F8",
"6. c #F8F9F8",
"7. c #F8F9F9",
"8. c #F9F9F9",
"9. c gray98",
"0. c #FAFBFA",
"q. c #FBFBFA",
"w. c #FAFBFB",
"e. c #FBFBFB",
"r. c #FBFCFB",
"t. c gray99",
"y. c #FDFDFD",
"u. c #FEFEFD",
"i. c #FEFEFE",
"p. c #FEFFFE",
"a. c white",
/* pixels */
"% % % % % % % % % % % % % % % % % % % % % % % % % % % % % % % % % % % % % % % % % % % % % % % % % % % % % % % % % % % % % % % % ",
"% % % % % % % % % % % % % % % % % % % % % % % % % % % % % % % % % % % % % % % % % % % % % % % % % % % % % % % % % % % % % % % % ",
"% % % % % % % % % % % % % % % % % % % % % % % % % % % % % % % % % % % % % % % % % % % % % % % % % % % % % % % % % % % % % % % % ",
"% % % % % % % % % % % % % % % % % % % % % % % % % % % % % % % % % % % % % % % % % % % % % % % % % % % % % % % % % % % % % % % % ",
"% % % % % % % % % % % % % % % % % % % % % % % % % % % % % % % % % % % % % % % % % % % % % % % % % % % % % % % % % % % % % % % % ",
"% % % % % % % % % % % % % % % % % % % % % % % % % % % % % % % % % % % % % % % % % % % % % % % % % % % % % % % % % % % % % % % % ",
"% % % % % % % % % % % % % % % % % % % % % % % % % % % % % % % % % % % % % % % % % % % % % % % % % % % % % % % % % % % % % % % % ",
"% % % % % % % % % % % % % % % % % % % % % % % % % % % % % % % % % % % % % % % % % % % % % % % % % % % % % % % % % % % % % % % % ",
"% % % % % % % % % % % % % % % % % % % % % % % % % % % % % % % % % % % % % % % % % % % % % % % % % % % % % % % % % % % % % % % % ",
"% % % % % % % % % % % % % % % % % % % % % % % % % % % % % % % % % % % % % % % % % % % % % % % % % % % $ % % % % % % % % % % % % ",
"% % % % % % % % % % % % % % % % % % % % % % % $ % % % % % % % % % % % % % % % % % % % % % % % % % % % & % % % % % % % % % % % % ",
"% % % % % % % % % % % % % % % % % % % $ & @ + + + O + + O + + + O O + + O O O o O X @ & % % % % % % % % % % % % % % % % % % % % ",
"% % % % % % % % % % % % % % % % % % % % + - q 9 8 9 9 9 0 9 9 9 0 0 q q q q q w w e & + & % % % % % % % % % % % % % % % % % % % ",
"% % % % % % % % % % % % % % % % % % & X ; H ( L L L L L L K U [ ] ..@.@.:.:.9.t.u.u.S % + % % % % % % % % % % % % % % % % % % % ",
"% % % % % % % % % % % % % % % % % % + : J u.S S D S S S D D F G H L L K K W ] ] o.@.u.D & # % % % % % % % % % % % % % % % % % % ",
"% % % % % % % % % % % % % % % % % $ + M u.[ S S U 9.:.:.:.4.4.9.9.4.9.9.9.9.r.e.r.r.u.u.c X $ % % % % % % % % % % % % % % % % % ",
"% % % % % % % % % % % % % % % % % $ + M u.W S A 9.u.u.u.u.u.u.u.u.u.u.u.u.u.u.u.u.u.u.u.v o % % % % % % % % % % % % % % % % % % ",
"% % % % % % % % % % % & % % % % % $ + m u.W S S Z C Z C C Z C C Z C Z C Z C V F @.] u.u.c X $ % % % % % % % % % % % % % % % % % ",
"% % % % % % % % % % % % % % % % % $ + m 9.W S L 7   + + + + + + + + + + + O   e A V 9.u.c X $ % % % % % % % % % % % % % % % % % ",
"% % % % % % % % % % % % % % % % % $ + m 6.U D L 9 o # $ $ $ # $ $ $ $ $ $ # X y K S e.u.c X % % % % % % % % % % % % % % % % % % ",
"% % % % % % % % % % % % % % % % & $ + n 3.K D L 0 + $ % % % % % $ % % % % % O y P F 9.u.c O $ % % % % % % % % % % % % % % % % % ",
"% % % % % % % % % % % % % % % % $ $ + n :.K D L 9 + % % % % % % % % % % % % O u W F 9.u.x X $ % % % % % % % % % % % % % % % % % ",
"% % % % % % % % % % % % % % % % $ $ + n =.K D L 0 + % % % % % % % % % % % % O u [ F 4.u.x X $ % % % % % % % % % % % % % % $ % % ",
"% % % % % % % % % % % % % % % % & $ + b #.K D L 0 + % % % % % % % % % % % $ O u ] G :.u.x O $ % % % % % % % % % % % % % % & % % ",
"% % % % % % % % % % % % % % % % % $ + b @.L D L 0 + % % % % % % % % % % % $ + i o.L @.u.z o % % % % % % % % % % % % % % % % % % ",
"% % % % % % % % % % % % % % % % % $ + b o.H D L 0 + % % % % % % % % % % % % O i @.L o.u.l o $ % % % % % % % % % % % % % % % % % ",
"% % % % % % % % % % % % % % % % % $ + b ..H D L 0 + % % % % % % % % % % % % X p :.L ] u.l o $ % % % % % % % % % % % % % % % % % ",
"% % % % % % % % % % % % % % % % % $ + v ..H D K 0 + % % % % % % % % % % % $ O p 3.K [ u.k o % % % % % % % % % % % % % % % % % % ",
"% % % % % % % % % % % % % % % % % $ + c [ G D L 0 + % % % % % % % % $ & % % + p 9.J W 9.k O $ % % % % % % % % % % % % % % % % % ",
"% % % % % % % % % % % % % % % % % $ + c [ F D L 9 + % $ % % % % % % % $ % $ O p 9.W J 9.h + $ % % % $ & % % % % % % % % % % % % ",
"% % % % % % % % % % % % % % % % % $ + c U F D K 9 + % & % & $ & % % & & & % X a u.[ K &.h + $ & % % % % % % % % % % % % % % % % ",
"% % % % % % % % % % % % % % % % % % + c P F D L 7 . + # + # @ + @ + + + + +   p u.] L @.h O % % % % % % % % % % % % % % % % % % ",
"% % % % % % % % % % % % % % % % % $ + x L F D L e & ; ; : : ; ; : : : : : : & d u.o.L ] g + % % % % % % % % % % % % % % % % % % ",
"% % % % % % % % % % % % % % % % % % + x L D F F F H L K K J W W [ o.o.#.#.&.4.&.@.@.G / g O % % % % % % % % % % % % % % % % % % ",
"% % % % % % % % % % % % % % % % % $ + v L S S D F K K K K W [ [ ] o.#.:.3.4.r.3.&.&.F [ j o % % % % % % % % % % % % % % % % % % ",
"% % % % % % % % % % % % % % % % % % + d u.U P U W W W W ( ] ] ] ] o.o.o.o.@.o.&.:.&.F [ r + $ % % % % % % % % % % % % % % % % % ",
"% % % % % % % % % % % % % % % % % % $ + n u.u.u.u.u.u.u.u.u.u.u.u.u.u.u.u.u.u.u.u.u.] p O % % % % % % % % % % % % % % % % % % % ",
"% % % % % % % % % % % % % % % % % % % @ o b t...] ] ....] ] ..........o.........@.4.p X $ % % % % % % % % % % % % % % % % % % % ",
"% % % % % % % % % % % % % % % % % % % % $ + * & & & & & * & & * & & & & & & & & & & + $ % % % % % % % % % % % % % % % % % % % % ",
"% % % % % % % % % % % % % % % % % % % % % $ @ @ $ # # # # @ @ @ # # # @ # # # # # # % % % % % % % % % % % % % % % % % % % % % % ",
"% % % % % % % % % % % % % % % % % % % % % % % % % % % % % % % % % % % % % % % % % % % % % % % % % % % % % % % % % % % % % % % % ",
"% % % % % % % % % % % $ % % % $ % % % % % % % $ % % % % % % % % % % % % % % % % % % % $ % % $ % % % % % % % % % % % % % % % % % ",
"% % % % % # O $ @ @ $ + # # @ @ & # o # # # $ + # @ # + $ & @ # $ + + $ + # $ + $ # $ + $ @ + % % @ + $ + @ $ # + # $ % % % % % ",
"% % % % # 1 p 1 2 5 * y 0 , 6 5 + 6 g 6 1 : , y 8 6 < 8 : # 5 ; < q r * u 1 - a ; 2 , p 1 9 e $ + 8 p $ y 7 ; 1 8 1 < # % % % % ",
"% % % % O u V 5 g s i f , s :.; + : M ; M B w C 5 g M F 7 . b M u m r w k r d d q d r C : l x $ * c 3 w g g y t N S e + % % % % ",
"% % % % + e y $ z z 2 z q r M 9 + % g & g a 0 M 9 e M m 1 o g i e x i 3 n g w m u u q B 1 u V * # l s 1 l f 8 r p M e o % % % % ",
"% % % % % * $ @ - ; + : ; % $ - % % & % & % & ; : & & % & % & % & - , $ : * @ , % & & > - * ; $ $ & , # ; * % & % % & % % % % % ",
"% % % % % $ $ % # $ % @ $ $ $ $ % % # % $ $ $ @ # $ $ $ % % $ $ $ @ @ % # $ % @ $ $ $ + $ $ @ % % $ # % # $ $ $ $ $ % % % % % % ",
"% % % % % % % % % % % % % % % % % % % % % % % % % % % % % % % % % % % % % % % % % % % % % % % % % % % % % % % % % % % % % % % % ",
"% % % % % % % % % % % % % % % % % % % % % % % % % % % % % % % % % % % % % % % % % % % % % % % % % % % % % % % % % % % % % % % % ",
"% % % % % % % % % % % % % % % % % % % % % % % % % % % % % % % % % % % % % % % % % % % % % % % % % % % % % % % % % % % % % % % % ",
"% % % % % % % % % % % % % % % % % % % % % % % % % % % % % % % % % % % % % % % % % % % % % % % % % % % % % % % % % % % % % % % % ",
"% % % % % % % % % % % % % % % % % % % % % % % % % % % % % % % % % % % % % % % % % % % % % % % % % % % % % % % % % % % % % % % % ",
"% % % % % % % % % % % % % % % % % % % % % % % % % % % % % % % % % % % % % % % % % % % % % % % % % % % % % % % % % % % % % % % % ",
"% % % % % % % % % % % % % % % % % % % % % % % % % % % % % % % % % % % % % % % % % % % % % % % % % % % % % % % % % % % % % % % % ",
"% % % % % % % % % % % % % % % % % % % % % % % % % % % % % % % % % % % % % % % % % % % % % % % % % % % % % % % % % % % % % % % % ",
"% % % % % % % % % % % % % % % % % % % % % % % % % % % % % % % % % % % % % % % % % % % % % % % % % % % % % % % % % % % % % % % % ",
"% % % % % % % % % % % % % % % % % % % % % % % % % % % % % % % % % % % % % % % % % % % % % % % % % % % % % % % % % % % % % % % % ",
"% % % % % % % % % % % % % % % % % % % % % % % % % % % % % % % % % % % % % % % % % % % % % % % % % % % % % % % % % % % % % % % % ",
"% % % % % % % % % % % % % % % % % % % % % % % % % % % % % % % % % % % % % % % % % % % % % % % % % % % % % % % % % % % % % % % % ",
"% % % % % % % % % % % % % % % % % % % % % % % % % % % % % % % % & % % % % % % % % % % % % % % % % % % % % % % % % % % % % % % % ",
"% % % % % % % % % % % % % % % % % % % % % % % % % % % % % % % % % % % % % % % % % % % % % % % % % % % % % % % % % % % % % % % % ",
"% % % % % % % % % % % % % % % % % % % % % % % % % % % % % % % % % % % % % % % % % % % % % % % % % % % % % % % % % % % % % % % % ",
"% % % % % % % % % % % % % % % % % % % % % % % % % % % % % % % % % % % % % % % % % % % % % % % % % % % % % % % % % % % % % % % % "
};
